<svg xmlns="http://www.w3.org/2000/svg" viewBox="0 0 27.24 28.09"><defs><style>.cls-1{fill:#1a1a1a;}</style></defs><g id="Capa_2" data-name="Capa 2"><g id="Capa_1-2" data-name="Capa 1"><path class="cls-1" d="M5.62,28.09V21.26A14.21,14.21,0,0,1,4,20.52a7.57,7.57,0,0,1-4-6.71c0-2,0-4.06,0-6.09C.06,3.35,2.84.29,7.24.12,11.45,0,15.68,0,19.89.1a7.32,7.32,0,0,1,7.35,7.75c-.09,2,0,3.9,0,5.86-.07,4.46-3.1,7.64-7.52,7.44a10.85,10.85,0,0,0-8.34,2.76A68.58,68.58,0,0,1,5.62,28.09Zm1.89-3.7a29.05,29.05,0,0,0,2.77-2,11.74,11.74,0,0,1,9.56-3.18c3.29.27,5.36-2,5.44-5.33,0-2,0-4.06,0-6.09,0-3.59-2.07-5.7-5.64-5.75-4-.06-8,0-11.95,0C4.1,2.07,2.05,4.12,2,7.71c-.05,2,0,4.06,0,6.09.06,2.95,1.3,4.62,4.18,5.4A1.57,1.57,0,0,1,7.52,21C7.5,22,7.51,23,7.51,24.39Z"/></g></g></svg>