<svg xmlns="http://www.w3.org/2000/svg" xmlns:xlink="http://www.w3.org/1999/xlink" viewBox="0 0 61.95 96.49"><defs><style>.cls-1{fill:url(#Degradado_sin_nombre_27);}.cls-2{fill:url(#Degradado_sin_nombre_13);}.cls-3{fill:url(#Degradado_sin_nombre_13-2);}.cls-4{fill:url(#Degradado_sin_nombre_14);}.cls-5{fill:url(#Degradado_sin_nombre_14-2);}.cls-6{fill:url(#Degradado_sin_nombre_13-3);}.cls-7{fill:url(#Degradado_sin_nombre_13-4);}.cls-8{fill:url(#Degradado_sin_nombre_13-5);}.cls-9{fill:url(#Degradado_sin_nombre_8);}.cls-10{fill:#8e581c;}.cls-11{fill:url(#Degradado_sin_nombre_8-2);}</style><linearGradient id="Degradado_sin_nombre_27" x1="10.64" y1="1796.31" x2="49.73" y2="1718.99" gradientTransform="matrix(1, 0, 0, -1, 0, 1806.4)" gradientUnits="userSpaceOnUse"><stop offset="0" stop-color="#f7cb63"/><stop offset="1" stop-color="#f8d663"/></linearGradient><radialGradient id="Degradado_sin_nombre_13" cx="2510.88" cy="2388.97" r="1.58" gradientTransform="matrix(43.53, 0, 0, -43.53, -109228.7, 104057.48)" gradientUnits="userSpaceOnUse"><stop offset="0" stop-color="#f5bd5e" stop-opacity="0"/><stop offset="1" stop-color="#f08d35"/></radialGradient><radialGradient id="Degradado_sin_nombre_13-2" cx="2551.43" cy="2870.47" r="1.58" gradientTransform="matrix(-1.38, -26.35, -5.55, 0.29, 19501.17, 66468.52)" xlink:href="#Degradado_sin_nombre_13"/><linearGradient id="Degradado_sin_nombre_14" x1="25.53" y1="1727.42" x2="45.21" y2="1732.46" gradientTransform="matrix(1, 0, 0, -1, 0, 1806.4)" gradientUnits="userSpaceOnUse"><stop offset="0" stop-color="#f5bd5e" stop-opacity="0"/><stop offset="1" stop-color="#da9052"/></linearGradient><linearGradient id="Degradado_sin_nombre_14-2" x1="21.47" y1="1743.15" x2="21.47" y2="1755.51" xlink:href="#Degradado_sin_nombre_14"/><radialGradient id="Degradado_sin_nombre_13-3" cx="2470.64" cy="2380.14" r="1.58" gradientTransform="matrix(26.05, 0, 0, -26.05, -64349.76, 62025.91)" xlink:href="#Degradado_sin_nombre_13"/><radialGradient id="Degradado_sin_nombre_13-4" cx="2474.78" cy="2381.08" r="1.58" gradientTransform="matrix(27.07, 0, 0, -27.07, -66945.18, 64467.61)" xlink:href="#Degradado_sin_nombre_13"/><radialGradient id="Degradado_sin_nombre_13-5" cx="2455.61" cy="2396.77" r="1.58" gradientTransform="matrix(22.58, 0, 0, -92.86, -55439.02, 222586.92)" xlink:href="#Degradado_sin_nombre_13"/><radialGradient id="Degradado_sin_nombre_8" cx="2846.39" cy="2529.43" r="1.58" gradientTransform="matrix(-9.32, 0, 0, 4.73, 26552.48, -11950.89)" gradientUnits="userSpaceOnUse"><stop offset="0" stop-color="#f6df87"/><stop offset="0.27" stop-color="#f7de82" stop-opacity="0.73"/><stop offset="0.65" stop-color="#f7da73" stop-opacity="0.35"/><stop offset="1" stop-color="#f8d663" stop-opacity="0"/></radialGradient><radialGradient id="Degradado_sin_nombre_8-2" cx="2509.48" cy="4318.1" r="1.58" gradientTransform="matrix(0.32, -11.43, -1.33, -0.04, 5000.14, 28907.09)" xlink:href="#Degradado_sin_nombre_8"/></defs><g id="Capa_2" data-name="Capa 2"><g id="Capa_1-2" data-name="Capa 1"><path class="cls-1" d="M4.14,7.39c0,4.23-.36,10.31-.36,13.17S0,26.84,0,40.24s4.69,16.14,8.13,16,3.86,2.56,7.56,3.28c2.85.55,3.4-.84,5.23-.84s2.78,2.7,5.87,2.7a9.25,9.25,0,0,0,5.6-2.4V82.58c0,6.18-.51,13.91,6.19,13.91s5.89-8.24,5.89-12.62S44.58,53,44.58,53,47.5,63.78,55.92,63.78s6.79-5.86,2.57-10.56c-7.44-8.28-3.26-27.83-20.6-34.5,0,0-1.87-.58.32-12.91,0,0-.94-5.81-15.63-5.81C6.79,0,4.14,7.39,4.14,7.39Z"/><path class="cls-2" d="M60,63a9.34,9.34,0,0,1-4.05.74c-7.49,0-10.62-8.55-11.21-10.44l-.32-8.49V37.13C46.82,51.68,54.77,62.1,60,63Z"/><path class="cls-3" d="M55.91,63.78C47.49,63.78,44.58,53,44.58,53l-.4-16.14A69.93,69.93,0,0,1,46.7,50.31c.34,7.43,5.6,13.33,11.21,13.34A14.81,14.81,0,0,1,55.91,63.78Z"/><path class="cls-4" d="M32.39,82.59V59a10.05,10.05,0,0,1-4.16,2.23c1.18-.4,3.45-3.15,4.42-4.64s1.7,1.6,1.7,5.84.34,20.58.34,27.18c0,3.95,1.53,6.87,3.89,6.87C31.88,96.49,32.39,88.76,32.39,82.59Z"/><path class="cls-5" d="M16.15,59.62c1.71,0,2.28-2.16,4.74-2.16s4,3.95,5.9,3.95c-3.09,0-4-2.7-5.87-2.7S18.6,59.94,16.15,59.62Z"/><path class="cls-6" d="M5.69,12.11C6.29,22.32,14,15,5.78,26c-4.71,6.27-3.52,18-3,22.66S7.24,54.26,10,54.94c2.38.6,3.29,3.68,5.21,4.48-3.25-.85-3.8-3.27-7.07-3.16C4.69,56.38,0,53.63,0,40.24S3.78,23.41,3.78,20.56s.36-8.94.36-13.17c0,0,.91-2.54,4.85-4.64C8.27,5.17,5.47,8.42,5.69,12.11Z"/><path class="cls-7" d="M37.88,18.72C46.94,22.2,50.13,29.2,52.17,36.27c-4.1-11.1-14.89-14.72-16.43-17C34.31,17.1,33.25,10.58,37,3.85a4.1,4.1,0,0,1,1.19,2C36,18.15,37.88,18.72,37.88,18.72Z"/><path class="cls-8" d="M21.6,0c1.22,7.61-4.37,14.68-4.37,26.33,0,12.78-8.34,19.5-3.73,32.4-1.89-1.06-2.77-2.57-5.38-2.49C4.7,56.38,0,53.63,0,40.23S3.78,23.41,3.78,20.56s.36-8.94.36-13.17C4.14,7.39,6.69.32,21.6,0Z"/><path class="cls-9" d="M14.34,10.2C17.94,10.2,20,9,22.92,9s12.36,1.77,12.36,8.07-5.15,19.09-10.82,20.7S8.73,31.65,7.87,26.49,8.67,10.2,14.34,10.2Z"/><path class="cls-10" d="M44.12,36.4s.46,16.45.46,16.57L44.93,54c.23,0,.31-.72.31-1C45.24,52.58,45.62,41.11,44.12,36.4Z"/><path class="cls-11" d="M39.21,91.37c-2,0-3.73-4.74-2.44-14.07s-3.15-20.82,1.8-20.82S41.08,75,41.08,77.88,43.23,91.37,39.21,91.37Z"/></g></g></svg>