<svg xmlns="http://www.w3.org/2000/svg" xmlns:xlink="http://www.w3.org/1999/xlink" viewBox="0 0 68.2 68.2"><defs><style>.cls-1{fill:#1a1a1a;stroke-miterlimit:10;stroke-width:2px;stroke:url(#Degradado_sin_nombre_48);}.cls-2{fill:url(#Degradado_sin_nombre_4);}.cls-11,.cls-12,.cls-3{isolation:isolate;}.cls-11,.cls-3{opacity:0.5;}.cls-3{fill:url(#Degradado_sin_nombre_2);}.cls-4{fill:url(#Degradado_sin_nombre_117);}.cls-5{fill:url(#Degradado_sin_nombre_22);}.cls-6{fill:url(#Degradado_sin_nombre_22-2);}.cls-7{fill:#643800;}.cls-8{fill:url(#Degradado_sin_nombre_116);}.cls-9{fill:url(#Degradado_sin_nombre_115);}.cls-10{fill:url(#Degradado_sin_nombre_17);}.cls-11{fill:#366e0d;}.cls-12{opacity:0.24;fill:url(#Degradado_sin_nombre_114);}.cls-13{fill:url(#Degradado_sin_nombre_22-3);}.cls-14{fill:url(#Degradado_sin_nombre_22-4);}.cls-15{fill:url(#Degradado_sin_nombre_17-2);}.cls-16{fill:url(#Degradado_sin_nombre_17-3);}.cls-17{fill:url(#Degradado_sin_nombre_17-4);}.cls-18{fill:url(#Degradado_sin_nombre_17-5);}.cls-19{fill:url(#Degradado_sin_nombre_17-6);}.cls-20{fill:url(#Degradado_sin_nombre_17-7);}.cls-21{fill:url(#Degradado_sin_nombre_17-8);}.cls-22{fill:url(#Degradado_sin_nombre_17-9);}.cls-23{fill:url(#Degradado_sin_nombre_17-10);}.cls-24{fill:url(#Degradado_sin_nombre_17-11);}.cls-25{fill:url(#Degradado_sin_nombre_22-5);}.cls-26{fill:url(#Degradado_sin_nombre_17-12);}.cls-27{fill:url(#Degradado_sin_nombre_17-13);}.cls-28{fill:url(#Degradado_sin_nombre_17-14);}.cls-29{fill:url(#Degradado_sin_nombre_17-15);}.cls-30{fill:url(#Degradado_sin_nombre_17-16);}</style><linearGradient id="Degradado_sin_nombre_48" y1="34.1" x2="68.2" y2="34.1" gradientUnits="userSpaceOnUse"><stop offset="0" stop-color="#ea1c24"/><stop offset="0.54" stop-color="#ea1e79"/><stop offset="1" stop-color="#f9eb21"/></linearGradient><radialGradient id="Degradado_sin_nombre_4" cx="3911.94" cy="1097.49" r="0.87" gradientTransform="matrix(34.74, 0, 0, -34.74, -135885.36, 38155.03)" gradientUnits="userSpaceOnUse"><stop offset="0" stop-color="#ffdf30"/><stop offset="1" stop-color="#ffb82e"/></radialGradient><radialGradient id="Degradado_sin_nombre_2" cx="3880.51" cy="1099.42" r="0.87" gradientTransform="matrix(27.33, 0, 0, -27.33, -106041.39, 30076.18)" gradientUnits="userSpaceOnUse"><stop offset="0" stop-color="#ffe95f"/><stop offset="1" stop-color="#ffbb47" stop-opacity="0"/></radialGradient><radialGradient id="Degradado_sin_nombre_117" cx="3758.03" cy="1137.14" r="0.87" gradientTransform="matrix(14.93, 0, 0, -5.39, -56081.52, 6179.66)" gradientUnits="userSpaceOnUse"><stop offset="0" stop-color="#7a4400" stop-opacity="0.5"/><stop offset="0.6" stop-color="#894d00" stop-opacity="0.2"/><stop offset="0.99" stop-color="#965500" stop-opacity="0"/></radialGradient><linearGradient id="Degradado_sin_nombre_22" x1="23.25" y1="1317.85" x2="23.25" y2="1320.51" gradientTransform="matrix(1, 0, 0, -1, 0, 1338.84)" gradientUnits="userSpaceOnUse"><stop offset="0" stop-color="#3c2200"/><stop offset="1" stop-color="#7a4400"/></linearGradient><linearGradient id="Degradado_sin_nombre_22-2" x1="44.95" y1="1317.85" x2="44.95" y2="1320.51" xlink:href="#Degradado_sin_nombre_22"/><radialGradient id="Degradado_sin_nombre_116" cx="3593.04" cy="1104.93" r="0.87" gradientTransform="matrix(9.27, 0, 0, -17.25, -33261.34, 19115.27)" gradientUnits="userSpaceOnUse"><stop offset="0" stop-color="#7ceb00"/><stop offset="1" stop-color="#2f9200"/></radialGradient><radialGradient id="Degradado_sin_nombre_115" cx="3720.92" cy="1570.41" r="0.87" gradientTransform="matrix(7.32, -6.12, -3.71, -4.44, -21377.39, 29810.29)" gradientUnits="userSpaceOnUse"><stop offset="0" stop-color="#fff" stop-opacity="0.33"/><stop offset="1" stop-color="#fff" stop-opacity="0"/></radialGradient><linearGradient id="Degradado_sin_nombre_17" x1="34.1" y1="1304.12" x2="34.1" y2="1293.86" gradientTransform="matrix(1, 0, 0, -1, 0, 1338.84)" gradientUnits="userSpaceOnUse"><stop offset="0" stop-color="#3c2200"/><stop offset="1" stop-color="#512d00"/></linearGradient><linearGradient id="Degradado_sin_nombre_114" x1="34.1" y1="1261.74" x2="34.1" y2="1298.01" gradientTransform="matrix(1, 0, 0, -1, 0, 1338.84)" xlink:href="#Degradado_sin_nombre_116"/><linearGradient id="Degradado_sin_nombre_22-3" x1="24.71" y1="1331.48" x2="24.71" y2="1282.76" xlink:href="#Degradado_sin_nombre_22"/><linearGradient id="Degradado_sin_nombre_22-4" x1="43.46" y1="1331.48" x2="43.46" y2="1282.76" xlink:href="#Degradado_sin_nombre_22"/><linearGradient id="Degradado_sin_nombre_17-2" x1="45.44" y1="1317.75" x2="45.44" y2="1308.95" xlink:href="#Degradado_sin_nombre_17"/><linearGradient id="Degradado_sin_nombre_17-3" x1="44.26" y1="1317.29" x2="44.26" y2="1302.73" xlink:href="#Degradado_sin_nombre_17"/><linearGradient id="Degradado_sin_nombre_17-4" x1="41.41" y1="1318.16" x2="41.41" y2="1308.51" xlink:href="#Degradado_sin_nombre_17"/><linearGradient id="Degradado_sin_nombre_17-5" x1="42.7" y1="1309" x2="42.7" y2="1302.19" xlink:href="#Degradado_sin_nombre_17"/><linearGradient id="Degradado_sin_nombre_17-6" x1="43.46" y1="1316.02" x2="43.46" y2="1314.53" xlink:href="#Degradado_sin_nombre_17"/><linearGradient id="Degradado_sin_nombre_17-7" x1="26.71" y1="1317.75" x2="26.71" y2="1308.95" xlink:href="#Degradado_sin_nombre_17"/><linearGradient id="Degradado_sin_nombre_17-8" x1="25.53" y1="1317.29" x2="25.53" y2="1302.73" xlink:href="#Degradado_sin_nombre_17"/><linearGradient id="Degradado_sin_nombre_17-9" x1="22.68" y1="1318.16" x2="22.68" y2="1308.51" xlink:href="#Degradado_sin_nombre_17"/><linearGradient id="Degradado_sin_nombre_17-10" x1="23.96" y1="1309" x2="23.96" y2="1302.19" xlink:href="#Degradado_sin_nombre_17"/><linearGradient id="Degradado_sin_nombre_17-11" x1="24.73" y1="1316.02" x2="24.73" y2="1314.53" xlink:href="#Degradado_sin_nombre_17"/><linearGradient id="Degradado_sin_nombre_22-5" x1="34.09" y1="1308.69" x2="34.09" y2="1272.47" xlink:href="#Degradado_sin_nombre_22"/><linearGradient id="Degradado_sin_nombre_17-12" x1="35.81" y1="1294.1" x2="35.81" y2="1286.41" xlink:href="#Degradado_sin_nombre_17"/><linearGradient id="Degradado_sin_nombre_17-13" x1="34.8" y1="1293.7" x2="34.8" y2="1280.96" xlink:href="#Degradado_sin_nombre_17"/><linearGradient id="Degradado_sin_nombre_17-14" x1="32.3" y1="1294.46" x2="32.3" y2="1286.02" xlink:href="#Degradado_sin_nombre_17"/><linearGradient id="Degradado_sin_nombre_17-15" x1="33.43" y1="1286.45" x2="33.43" y2="1280.49" xlink:href="#Degradado_sin_nombre_17"/><linearGradient id="Degradado_sin_nombre_17-16" x1="34.1" y1="1292.59" x2="34.1" y2="1291.29" xlink:href="#Degradado_sin_nombre_17"/></defs><g id="Capa_2" data-name="Capa 2"><g id="Capa_1-2" data-name="Capa 1"><circle class="cls-1" cx="34.1" cy="34.1" r="33.1"/><path class="cls-2" d="M34.1,59.74A25.19,25.19,0,1,0,8.91,34.55,25.19,25.19,0,0,0,34.1,59.74Z"/><path class="cls-3" d="M34.1,59.74A25.19,25.19,0,1,0,8.91,34.55,25.19,25.19,0,0,0,34.1,59.74Z"/><path class="cls-4" d="M34.1,59.74A25.19,25.19,0,1,0,8.91,34.55,25.19,25.19,0,0,0,34.1,59.74Z"/><path class="cls-5" d="M28.56,19.3c0-1-1.09-1.64-3-1.64a10.34,10.34,0,0,0-7.51,4c-.44.58.24.89.68.52a13.56,13.56,0,0,1,8.57-2.54C28.57,19.76,28.56,19.3,28.56,19.3Z"/><path class="cls-6" d="M39.64,19.3c0-1,1.09-1.64,3-1.64a10.31,10.31,0,0,1,7.51,4c.45.58-.23.89-.68.52a13.53,13.53,0,0,0-8.56-2.54C39.63,19.76,39.64,19.3,39.64,19.3Z"/><path class="cls-7" d="M34.1,51.06c-13.23,0-17.47-13.48-13.44-11.37,5.41,2.83,8.83,3.65,13.44,3.65s8-.82,13.44-3.65C51.57,37.59,47.33,51.06,34.1,51.06Z"/><path class="cls-8" d="M42.05,45.54a1.21,1.21,0,0,0-1.55-1.17,22.33,22.33,0,0,1-6.4.89,22.69,22.69,0,0,1-6.4-.89,1.22,1.22,0,0,0-1.56,1.17V52.7a8,8,0,1,0,15.91,0V45.54Z"/><path class="cls-9" d="M42.05,45.54a1.21,1.21,0,0,0-1.55-1.17,22.33,22.33,0,0,1-6.4.89,22.69,22.69,0,0,1-6.4-.89,1.22,1.22,0,0,0-1.56,1.17V52.7a8,8,0,1,0,15.91,0V45.54Z"/><path class="cls-10" d="M47.54,39.7c-5.42,2.83-8.84,3.65-13.44,3.65s-8-.82-13.44-3.65c-1.4-.74-1.8.42-1.17,2.23,0,0,.21-2,2.11-.64h0a20.15,20.15,0,0,0,12.49,4,20.18,20.18,0,0,0,12.49-4h0c1.9-1.35,2.11.6,2.11.64C49.34,40.12,48.93,39,47.54,39.7Z"/><path class="cls-11" d="M34.1,45.27a22.69,22.69,0,0,1-6.4-.89,1.23,1.23,0,0,0-1.56,1.17v3s.1-1.9,8-1.9,7.95,1.9,7.95,1.9v-3a1.22,1.22,0,0,0-1.55-1.17A22.69,22.69,0,0,1,34.1,45.27Z"/><path class="cls-12" d="M34.1,45.27c-.28,0-.55,0-.82,0,0,9.59.37,12.94.82,12.94s.81-3.3.82-12.94C34.65,45.24,34.38,45.27,34.1,45.27Z"/><path class="cls-13" d="M25.22,36v1.6h-1V36A3.26,3.26,0,0,1,21,33h1.5c0,1.13.9,1.82,2.29,1.82s2.2-.67,2.2-1.64-.66-1.43-1.84-1.78L23.66,31c-1.43-.42-2.55-1.22-2.55-2.79a3.09,3.09,0,0,1,3.14-3V23.51h1v1.64a3.1,3.1,0,0,1,3,3H26.73a1.92,1.92,0,0,0-2.16-1.82c-1.25,0-2,.67-2,1.7s.74,1.36,1.67,1.63l1.82.52c1.8.53,2.41,1.57,2.41,2.86C28.49,34.74,27.16,35.85,25.22,36Z"/><path class="cls-14" d="M44,36v1.6H43V36a3.27,3.27,0,0,1-3.28-3h1.5c0,1.13.9,1.82,2.29,1.82s2.21-.67,2.21-1.64-.67-1.43-1.84-1.78L42.39,31c-1.43-.42-2.55-1.22-2.55-2.79a3.09,3.09,0,0,1,3.14-3V23.51h1v1.64a3.11,3.11,0,0,1,3,3H45.46a1.92,1.92,0,0,0-2.15-1.82c-1.26,0-2,.67-2,1.7S42,29.39,43,29.66l1.81.52c1.82.53,2.44,1.56,2.44,2.85C47.22,34.74,45.9,35.85,44,36Z"/><path class="cls-15" d="M44,25.66a3.14,3.14,0,0,1,2.92,2.5h.07a3.11,3.11,0,0,0-3-3v.5Z"/><path class="cls-16" d="M44.79,30.17,43,29.64c-.84-.23-1.54-.6-1.65-1.38a2.3,2.3,0,0,0,0,.26c0,.94.74,1.36,1.68,1.63l1.81.53a2.85,2.85,0,0,1,2.41,2.55c0-.07,0-.13,0-.2C47.22,31.74,46.6,30.71,44.79,30.17Z"/><path class="cls-17" d="M43,25.64v-.51a3.09,3.09,0,0,0-3.14,3,2.46,2.46,0,0,0,0,.26A3.1,3.1,0,0,1,43,25.64Z"/><path class="cls-18" d="M41.2,33.49c0,1.12.9,1.81,2.29,1.81s2.21-.66,2.21-1.64a2.58,2.58,0,0,0,0-.29c-.11.84-.91,1.42-2.18,1.42S41.23,34.1,41.2,33H39.7a4.17,4.17,0,0,0,.08.51H41.2Z"/><path class="cls-19" d="M44,23.51H43V24h1Z"/><path class="cls-20" d="M25.22,25.66a3.15,3.15,0,0,1,2.92,2.5h.07a3.11,3.11,0,0,0-3-3v.5Z"/><path class="cls-21" d="M26.06,30.17l-1.81-.53c-.85-.23-1.54-.6-1.66-1.38a2.28,2.28,0,0,0,0,.26c0,.94.74,1.36,1.68,1.63l1.81.53a2.84,2.84,0,0,1,2.4,2.55c0-.07,0-.13,0-.2C28.49,31.74,27.87,30.71,26.06,30.17Z"/><path class="cls-22" d="M24.25,25.64v-.51a3.09,3.09,0,0,0-3.14,3,2.46,2.46,0,0,0,0,.26A3.1,3.1,0,0,1,24.25,25.64Z"/><path class="cls-23" d="M22.47,33.49c0,1.12.9,1.81,2.29,1.81s2.2-.66,2.2-1.64a2.64,2.64,0,0,0,0-.29c-.12.84-.91,1.42-2.18,1.42S22.5,34.1,22.47,33H21a2.85,2.85,0,0,0,.08.51h1.42Z"/><path class="cls-24" d="M25.22,23.51h-1V24h1Z"/><path class="cls-25" d="M34.52,57.8v1.4h-.84V57.8a2.86,2.86,0,0,1-2.87-2.66h1.31c0,1,.78,1.59,2,1.59s1.93-.59,1.93-1.44-.58-1.25-1.6-1.56l-1.28-.37c-1.25-.38-2.23-1.07-2.23-2.44a2.7,2.7,0,0,1,2.75-2.66V46.85h.84V48.3a2.72,2.72,0,0,1,2.61,2.62H35.86A1.69,1.69,0,0,0,34,49.33c-1.1,0-1.76.58-1.76,1.47s.65,1.19,1.47,1.42l1.59.47a2.47,2.47,0,0,1,2.11,2.49C37.38,56.68,36.22,57.66,34.52,57.8Z"/><path class="cls-26" d="M34.52,48.73a2.7,2.7,0,0,1,2.54,2.18h.06a2.73,2.73,0,0,0-2.61-2.63v.45Z"/><path class="cls-27" d="M35.27,52.69l-1.59-.47c-.74-.21-1.34-.54-1.44-1.21a.93.93,0,0,0,0,.24c0,.82.65,1.18,1.47,1.42l1.59.46a2.51,2.51,0,0,1,2.1,2.23c0-.06,0-.12,0-.18A2.47,2.47,0,0,0,35.27,52.69Z"/><path class="cls-28" d="M33.68,48.72v-.45a2.71,2.71,0,0,0-2.76,2.66,1.46,1.46,0,0,0,0,.22A2.71,2.71,0,0,1,33.68,48.72Z"/><path class="cls-29" d="M32.12,55.58c0,1,.78,1.6,2,1.6s1.93-.59,1.93-1.45a2,2,0,0,0,0-.25c-.1.73-.8,1.24-1.91,1.24s-2-.6-2-1.59H30.81a2.13,2.13,0,0,0,.07.44h1.24Z"/><path class="cls-30" d="M34.52,46.85h-.84v.45h.84Z"/></g></g></svg>