<svg xmlns="http://www.w3.org/2000/svg" xmlns:xlink="http://www.w3.org/1999/xlink" viewBox="0 0 82.48 81.91"><defs><style>.cls-1{fill:url(#Degradado_sin_nombre_3);}.cls-2{fill:url(#Degradado_sin_nombre_21);}.cls-3{fill:url(#Degradado_sin_nombre_3-2);}.cls-4{fill:url(#Degradado_sin_nombre_21-2);}.cls-5{fill:url(#Degradado_sin_nombre_5);}.cls-6{fill:url(#Degradado_sin_nombre_21-3);}.cls-7{fill:url(#Degradado_sin_nombre_29);}.cls-8{fill:url(#Degradado_sin_nombre_29-2);}.cls-9{fill:url(#Degradado_sin_nombre_29-3);}.cls-10{fill:url(#Degradado_sin_nombre_28);}.cls-11{fill:url(#Degradado_sin_nombre_23);}.cls-12{fill:url(#Degradado_sin_nombre_26);}.cls-13{fill:url(#Degradado_sin_nombre_25);}.cls-14{fill:url(#Degradado_sin_nombre_24);}.cls-15{fill:url(#Degradado_sin_nombre_21-4);}.cls-16{fill:url(#Degradado_sin_nombre_21-5);}.cls-17{fill:url(#Degradado_sin_nombre_21-6);}.cls-18{fill:url(#Degradado_sin_nombre_23-2);}.cls-19{fill:url(#Degradado_sin_nombre_23-3);}.cls-20{fill:url(#Degradado_sin_nombre_21-7);}</style><radialGradient id="Degradado_sin_nombre_3" cx="4118.56" cy="2705.93" r="1.43" gradientTransform="matrix(-15.65, 0, 0, 15.65, 64477.92, -42328.23)" gradientUnits="userSpaceOnUse"><stop offset="0" stop-color="#fff"/><stop offset="1" stop-color="#b5c4c6"/></radialGradient><radialGradient id="Degradado_sin_nombre_21" cx="4021.94" cy="2768.17" r="1.43" gradientTransform="matrix(-25.67, 0, 0, 25.67, 103239.14, -71021.15)" gradientUnits="userSpaceOnUse"><stop offset="0" stop-color="#c9d6d8" stop-opacity="0"/><stop offset="1" stop-color="#889fa2"/></radialGradient><radialGradient id="Degradado_sin_nombre_3-2" cx="3624.84" cy="3025.25" r="1.43" gradientTransform="matrix(15.65, 0, 0, -15.65, -56665.61, 47386.54)" xlink:href="#Degradado_sin_nombre_3"/><radialGradient id="Degradado_sin_nombre_21-2" cx="3720.82" cy="2963" r="1.43" gradientTransform="matrix(25.67, 0, 0, -25.67, -95426.44, 76075.29)" xlink:href="#Degradado_sin_nombre_21"/><radialGradient id="Degradado_sin_nombre_5" cx="3820.68" cy="2743.48" r="1.43" gradientTransform="matrix(-1.07, 47.9, 32.09, 0.72, -83913.95, -184939.99)" gradientUnits="userSpaceOnUse"><stop offset="0" stop-color="#fff"/><stop offset="0.34" stop-color="#fcfcfc"/><stop offset="0.58" stop-color="#f3f5f6"/><stop offset="0.78" stop-color="#e3eaeb"/><stop offset="0.96" stop-color="#ced9db"/><stop offset="1" stop-color="#c9d6d8"/></radialGradient><radialGradient id="Degradado_sin_nombre_21-3" cx="3699.87" cy="2975.94" r="1.43" gradientTransform="matrix(22.58, 0, 0, -22.58, -83502.62, 67251.67)" xlink:href="#Degradado_sin_nombre_21"/><radialGradient id="Degradado_sin_nombre_29" cx="2886.13" cy="3503.54" r="1.43" gradientTransform="matrix(3.92, 0, 0, -3.92, -11260.12, 13758.96)" gradientUnits="userSpaceOnUse"><stop offset="0" stop-color="#3c2200"/><stop offset="1"/></radialGradient><radialGradient id="Degradado_sin_nombre_29-2" cx="2330.26" cy="3862.03" r="1.43" gradientTransform="matrix(2.51, 0, 0, -2.51, -5817.17, 9717.81)" xlink:href="#Degradado_sin_nombre_29"/><radialGradient id="Degradado_sin_nombre_29-3" cx="3715.5" cy="2966.05" r="1.43" gradientTransform="matrix(24.85, 0, 0, -24.85, -92289.92, 73745.89)" xlink:href="#Degradado_sin_nombre_29"/><linearGradient id="Degradado_sin_nombre_28" x1="42.34" y1="5319.28" x2="42.34" y2="5331.03" gradientTransform="matrix(1, 0, 0, -1, -1.1, 5366.93)" gradientUnits="userSpaceOnUse"><stop offset="0" stop-color="#ff6682"/><stop offset="1" stop-color="#d33e15"/></linearGradient><radialGradient id="Degradado_sin_nombre_23" cx="3546.95" cy="4262.95" r="1.43" gradientTransform="matrix(4.42, -3.06, -1.73, -2.5, -8194.36, 21548.31)" gradientUnits="userSpaceOnUse"><stop offset="0" stop-color="#fff" stop-opacity="0.33"/><stop offset="0.29" stop-color="#fff" stop-opacity="0.22"/><stop offset="0.76" stop-color="#fff" stop-opacity="0.06"/><stop offset="1" stop-color="#fff" stop-opacity="0"/></radialGradient><linearGradient id="Degradado_sin_nombre_26" x1="42.32" y1="5326.61" x2="42.32" y2="5310.1" gradientTransform="matrix(1, 0, 0, -1, -1.1, 5366.93)" gradientUnits="userSpaceOnUse"><stop offset="0" stop-color="#d33e15" stop-opacity="0"/><stop offset="1" stop-color="#d33e15"/></linearGradient><linearGradient id="Degradado_sin_nombre_25" x1="42.34" y1="5317.6" x2="42.34" y2="5335.06" gradientTransform="matrix(1, 0, 0, -1, -1.1, 5366.93)" xlink:href="#Degradado_sin_nombre_29"/><linearGradient id="Degradado_sin_nombre_24" x1="42.34" y1="5324.69" x2="42.34" y2="5328.14" gradientTransform="matrix(1, 0, 0, -1, -1.1, 5366.93)" gradientUnits="userSpaceOnUse"><stop offset="0" stop-color="#d33e15" stop-opacity="0"/><stop offset="1" stop-color="#b72719"/></linearGradient><radialGradient id="Degradado_sin_nombre_21-4" cx="3796.45" cy="2725.78" r="1.43" gradientTransform="matrix(4.79, 39.14, 25.05, -3.07, -86408.92, -140164.89)" xlink:href="#Degradado_sin_nombre_21"/><radialGradient id="Degradado_sin_nombre_21-5" cx="3828.83" cy="2892.86" r="1.43" gradientTransform="matrix(91.86, 0, 0, -91.86, -351713.1, 265748.28)" xlink:href="#Degradado_sin_nombre_21"/><radialGradient id="Degradado_sin_nombre_21-6" cx="3912.97" cy="2838.31" r="1.43" gradientTransform="matrix(-91.86, 0, 0, 91.86, 359524.55, -260717.84)" xlink:href="#Degradado_sin_nombre_21"/><radialGradient id="Degradado_sin_nombre_23-2" cx="653.8" cy="4949.04" r="1.43" gradientTransform="matrix(1.2, 0, 0, -1.2, -730.66, 5966.04)" xlink:href="#Degradado_sin_nombre_23"/><radialGradient id="Degradado_sin_nombre_23-3" cx="-1685.8" cy="6458.19" r="1.43" gradientTransform="matrix(0.7, 0, 0, -0.7, 1204.22, 4521.06)" xlink:href="#Degradado_sin_nombre_23"/><radialGradient id="Degradado_sin_nombre_21-7" cx="3820.27" cy="2701.39" r="1.43" gradientTransform="matrix(-4.79, 39.14, 25.05, 3.07, -49335.23, -157740.46)" xlink:href="#Degradado_sin_nombre_21"/></defs><g id="Capa_2" data-name="Capa 2"><g id="Capa_1-2" data-name="Capa 1"><path class="cls-1" d="M3.28,24.87C.43,25.26,0,28.11,0,30.24A28.79,28.79,0,0,0,14.39,53.35c13.15,7.66.42-17.59.42-17.59S10.34,35,9,30.79c-1.47-4.57-3.52-6.2-5.7-5.9Z"/><path class="cls-2" d="M14.39,53.34A28.8,28.8,0,0,1,0,30.23a6.73,6.73,0,0,1,1.12-4.18C-.27,30.54,2.84,39,6.43,43.66c4.12,5.31,8,11.11,7-8.35a6.41,6.41,0,0,0,1.35.4S27.55,61,14.41,53.31Z"/><path class="cls-3" d="M79.2,24.87c2.85.39,3.28,3.24,3.28,5.37A28.79,28.79,0,0,1,68.09,53.35c-13.15,7.66-.42-17.59-.42-17.59s4.47-.75,5.82-5c1.47-4.57,3.52-6.2,5.7-5.9Z"/><path class="cls-4" d="M68.09,53.34A28.8,28.8,0,0,0,82.48,30.23a6.73,6.73,0,0,0-1.12-4.18c1.39,4.49-1.72,13-5.31,17.61-4.12,5.31-8,11.11-7-8.35a6.41,6.41,0,0,1-1.35.4S54.93,61,68.07,53.31Z"/><path class="cls-5" d="M41.24,81.91c11.5,0,15.91-8.25,24.14-3.27s15.71,3.27,15.71-1-16.48-18-13.79-38.5S61,0,41.24,0,12.5,18.69,15.18,39.18,1.39,73.46,1.39,77.68s7.47,5.94,15.71,1S29.74,81.91,41.24,81.91Z"/><path class="cls-6" d="M49.66,39.21A1.27,1.27,0,0,0,48,38.13a27.71,27.71,0,0,1-6.77.82,26.71,26.71,0,0,1-6.77-.82,1.27,1.27,0,0,0-1.65,1.08v8.17c0,4,3.77,7.41,8.42,7.41s8.42-3.41,8.42-7.41Z"/><path class="cls-7" d="M51.05,32.23a8.33,8.33,0,1,0-8.34-8.33A8.33,8.33,0,0,0,51.05,32.23Z"/><path class="cls-8" d="M30.23,28.64a4.74,4.74,0,1,0-4.74-4.74A4.74,4.74,0,0,0,30.23,28.64Z"/><path class="cls-9" d="M41.24,43.29C29,43.29,25,32.91,28.77,34.52c5,2.18,8.2,2.82,12.47,2.82a27.88,27.88,0,0,0,12.47-2.82C57.46,32.89,53.53,43.29,41.24,43.29Z"/><path class="cls-10" d="M48.63,39a1.1,1.1,0,0,0-1.45-.9,25.91,25.91,0,0,1-11.88,0,1.12,1.12,0,0,0-1.45.9V46c0,3.38,3.31,6.26,7.39,6.26s7.39-2.88,7.39-6.26Z"/><path class="cls-11" d="M48.63,39a1.1,1.1,0,0,0-1.45-.9,25.91,25.91,0,0,1-11.88,0,1.12,1.12,0,0,0-1.45.9V46c0,3.38,3.31,6.26,7.39,6.26s7.39-2.88,7.39-6.26Z"/><path class="cls-12" d="M40.47,39.11H42c0,7.84-.34,10.75-.77,10.75s-.78-2.94-.78-10.75Z"/><path class="cls-13" d="M53.71,34.52c-5,2.18-8.2,2.82-12.47,2.82a27.88,27.88,0,0,1-12.47-2.82c-1.31-.57-1.68.33-1.09,1.74,0,0,.2-1.54,2-.49a21.38,21.38,0,0,0,11.6,3.06,21.3,21.3,0,0,0,11.6-3c1.76-1,1.95.46,2,.49.59-1.4.22-2.29-1.09-1.73Z"/><path class="cls-14" d="M41.24,38.82a24.72,24.72,0,0,1-5.94-.69,1.11,1.11,0,0,0-1.45.9v2.32s.09-1.47,7.39-1.47,7.39,1.47,7.39,1.47V39a1.11,1.11,0,0,0-1.45-.9A24.72,24.72,0,0,1,41.24,38.82Z"/><path class="cls-15" d="M58.07,60.63c3.76,0,5,12.44,14.89,20.88a20.86,20.86,0,0,1-7.58-2.88c-7-4.26-11.3,1.14-19.57,2.8C56,78.8,54.24,60.61,58.05,60.61Z"/><path class="cls-16" d="M17.51,37.7C14.36,0,41.24,0,41.24,0,21.51,0,12.5,18.67,15.18,39.16,17.5,56.85,5.56,69.53,2.23,75.39c9.63-6.3,17.2-14.78,15.28-37.7Z"/><path class="cls-17" d="M65,37.7C68.29,0,41.24,0,41.24,0,61,0,70,18.67,67.3,39.16c-2.32,17.69,9.62,30.37,13,36.23C70.62,69.09,62.93,60.61,65,37.69Z"/><path class="cls-18" d="M54,29.17a1.79,1.79,0,1,0-1.79-1.79A1.79,1.79,0,0,0,54,29.17Z"/><path class="cls-19" d="M31.77,27a1,1,0,1,0-1-1A1,1,0,0,0,31.77,27Z"/><path class="cls-20" d="M24.41,60.63c-3.76,0-5,12.44-14.89,20.88a20.86,20.86,0,0,0,7.58-2.88c7-4.26,11.3,1.14,19.57,2.8C26.53,78.8,28.24,60.61,24.43,60.61Z"/></g></g></svg>