<svg xmlns="http://www.w3.org/2000/svg" viewBox="0 0 27.06 27.06"><defs><style>.cls-1{fill:#fff;}</style></defs><g id="Capa_2" data-name="Capa 2"><g id="Capa_1-2" data-name="Capa 1"><path class="cls-1" d="M13.53,27.06A13.53,13.53,0,1,1,27.06,13.53,13.55,13.55,0,0,1,13.53,27.06Zm0-24.66A11.13,11.13,0,1,0,24.66,13.53,11.14,11.14,0,0,0,13.53,2.4ZM11.85,21.33V11.41h3.36v9.92ZM13.54,9a2.34,2.34,0,0,1-1.36-.37,1.4,1.4,0,0,1-.5-1.28,1.39,1.39,0,0,1,.49-1.27,2.47,2.47,0,0,1,1.37-.36,2.45,2.45,0,0,1,1.35.36,1.38,1.38,0,0,1,.5,1.27,1.41,1.41,0,0,1-.5,1.28A2.38,2.38,0,0,1,13.54,9Z"/></g></g></svg>