<svg xmlns="http://www.w3.org/2000/svg" viewBox="0 0 38.38 39.04"><defs><style>.cls-1{fill:#666;}</style></defs><g id="Capa_2" data-name="Capa 2"><g id="Capa_1-2" data-name="Capa 1"><path class="cls-1" d="M37.17,39,28.7,36.48C23.93,38.9,18.81,39.86,13.51,38c-4.16-1.5-7.87-3.77-10.21-7.71-5.41-9.07-4-18.34,2.86-25C12.35-.8,22.29-2,30.41,3.66c6.76,4.71,10.68,15,5.76,25.16.53,1.85,1.15,4.08,1.81,6.28C38.39,36.45,38.81,37.77,37.17,39ZM35,35.79a8.46,8.46,0,0,0,.07-1.91,18,18,0,0,0-.86-3.05,5.18,5.18,0,0,1,.22-4.3,16.24,16.24,0,0,0,.12-13.89C31.38,5.58,24,.81,15.48,2.94A16.88,16.88,0,0,0,5.87,29.5c4.21,5.5,9.82,8,16.79,6.37,2.05-.47,4-1.27,6.16-2Z"/></g></g></svg>