<svg xmlns="http://www.w3.org/2000/svg" viewBox="0 0 41.53 36.13"><defs><style>.cls-1{fill:#666;}</style></defs><g id="Capa_2" data-name="Capa 2"><g id="Capa_1-2" data-name="Capa 1"><path class="cls-1" d="M20.59,4.58a39.13,39.13,0,0,1,3.67-2.9c7.88-4.74,16.56,1.5,17.22,9.44a13.06,13.06,0,0,1-4.08,11c-3.82,3.69-7.79,7.23-11.73,10.8C24.42,34,23.07,35,21.93,36a3.69,3.69,0,0,1-3.69-1.1c-1.7-1.44-3.39-2.9-5-4.4C10.43,28,7.64,25.53,5,23A16.38,16.38,0,0,1,.5,15.72C-1.79,8,4.13-.18,12.05,0a10.69,10.69,0,0,1,7,2.73A17.69,17.69,0,0,1,20.59,4.58Zm.31,4.67a39.46,39.46,0,0,0-3.53-4.46A7.79,7.79,0,0,0,9.78,2.73C4.45,4,1.33,10.66,3,15.3a13.94,13.94,0,0,0,3.52,5.6c4,3.76,8.13,7.49,12.22,11.2a17,17,0,0,0,2,1.4,9.57,9.57,0,0,0,1.45-.89c3.84-3.35,7.69-6.69,11.45-10.14a29.93,29.93,0,0,0,3.5-4.1c2.64-3.51,2.24-8.74-.28-12.2-4-5.55-11.4-4.33-14,0C22.33,7.2,21.64,8.13,20.9,9.25Z"/></g></g></svg>