<svg xmlns="http://www.w3.org/2000/svg" viewBox="0 0 41.75 36.91"><defs><style>.cls-1{fill:#666;}</style></defs><g id="Capa_2" data-name="Capa 2"><g id="Capa_1-2" data-name="Capa 1"><path class="cls-1" d="M20.24,36.91C18.31,33.1,18,29.52,17.08,26.13s-1.78-7-2.86-11.21L0,.89C.88-.39,2.16.09,3.26.08c9.68,0,19.36,0,29,0,2.24,0,4.47,0,6.7,0a18.16,18.16,0,0,1,2.76.54C34.62,12.88,27.6,24.64,20.24,36.91Zm.5-6.14c3.12-4.5,5.42-8.59,7.77-12.64s4.88-8,6.9-12.32a83.07,83.07,0,0,0-9.28,4.69c-3,1.76-6.25,3.06-9,5.43ZM5,2.7c3.92,4,7.21,7.54,11,10.41C22.23,9.87,28.27,6.63,34.69,2.7Z"/></g></g></svg>