<svg xmlns="http://www.w3.org/2000/svg" viewBox="0 0 38.34 38.34"><defs><style>.cls-1{fill:#666;}</style></defs><g id="Capa_2" data-name="Capa 2"><g id="Capa_1-2" data-name="Capa 1"><g id="Crsvk0.tif"><path class="cls-1" d="M17.88,0h1.41l.23,0c.87.06,1.75.05,2.61.18a18.89,18.89,0,0,1,9.54,4.4,19.14,19.14,0,0,1,6.55,12.07c.06.43.08.88.12,1.32v2.34a1.66,1.66,0,0,0,0,.22,15.07,15.07,0,0,1-.59,3.53A18.85,18.85,0,0,1,33,32.44a19,19,0,0,1-13,5.88,19.58,19.58,0,0,1-3.59-.15,19.78,19.78,0,0,1-6.4-2.12,18.85,18.85,0,0,1-6.5-5.76A18.69,18.69,0,0,1,0,20.12,19.13,19.13,0,0,1,5.81,5.43,18.84,18.84,0,0,1,16.46.19Zm1.38,2.42A16.77,16.77,0,1,0,36,19.78,16.73,16.73,0,0,0,19.26,2.42Z"/><path class="cls-1" d="M6.78,25c.21,0,.4,0,.58,0H9.5a.35.35,0,0,1,.2.1,11.94,11.94,0,0,0,7.52,4.51,11.68,11.68,0,0,0,8.7-1.93,13.55,13.55,0,0,0,2.77-2.58.25.25,0,0,1,.17-.1h2.76A14.34,14.34,0,0,1,6.78,25Z"/><path class="cls-1" d="M27.54,16.79a2.38,2.38,0,0,1-2.41,2.37,2.5,2.5,0,0,1-2.34-2.36,2.44,2.44,0,0,1,2.33-2.41A2.35,2.35,0,0,1,27.54,16.79Z"/><path class="cls-1" d="M15.53,16.79a2.36,2.36,0,1,1-2.42-2.4A2.33,2.33,0,0,1,15.53,16.79Z"/></g></g></g></svg>