<svg xmlns="http://www.w3.org/2000/svg" viewBox="0 0 28.12 28.12"><defs><style>.cls-1{fill:#5e91ff;}</style></defs><g id="Capa_2" data-name="Capa 2"><g id="Capa_1-2" data-name="Capa 1"><g id="_3PU3g4" data-name="3PU3g4"><path class="cls-1" d="M28.12,14.07A14,14,0,0,1,14.05,28.12,13.63,13.63,0,0,1,4.11,24,13.58,13.58,0,0,1,0,14.07,13.62,13.62,0,0,1,4,4.25,13.65,13.65,0,0,1,14.09,0,14,14,0,0,1,28.12,14.07ZM16,19.33H19.8a.92.92,0,0,0,.89-.57,1.07,1.07,0,0,0-.25-1.15c-.11-.09-.1-.12,0-.18a1.59,1.59,0,0,0,.35-.22,1.08,1.08,0,0,0-.13-1.6c-.06,0-.1-.11-.16-.16l.21-.11a1,1,0,0,0,.53-1.56,1.78,1.78,0,0,0-.54-.52c-.11-.07-.11-.11,0-.17a1.19,1.19,0,0,0,.44-.33,1.46,1.46,0,0,0,.25-1.06,1.09,1.09,0,0,0-1.12-1c-1.18,0-2.36,0-3.54,0a.75.75,0,0,1-.21,0c-.15,0-.18-.11-.12-.26.16-.36.33-.71.48-1.07a4.58,4.58,0,0,0,.44-2.33A3.92,3.92,0,0,0,17,5.75a1.16,1.16,0,0,0-.87-.67.86.86,0,0,0-1.05.8c0,.4,0,.8,0,1.19a.78.78,0,0,1-.24.6c-.4.44-.81.87-1.2,1.32a10.72,10.72,0,0,0-.87,1.14A6.64,6.64,0,0,0,11.7,13.8v5c0,.28.13.51.54.5Zm-5.38-2.86c0-1.16,0-2.33,0-3.49a.47.47,0,0,0-.5-.5c-1,0-2,0-3,0-.34,0-.5.16-.5.49,0,2.32,0,4.65,0,7a.48.48,0,0,0,.5.5H10.1c.35,0,.51-.16.51-.52Z"/></g></g></g></svg>