<svg xmlns="http://www.w3.org/2000/svg" viewBox="0 0 30.42 30.15"><defs><style>.cls-1{fill:#1a1a1a;}</style></defs><g id="Capa_2" data-name="Capa 2"><g id="Capa_1-2" data-name="Capa 1"><g id="VFgqtV"><path class="cls-1" d="M10.55,29a3.54,3.54,0,0,1-3.16,1.1c-1.48-.06-3,0-4.44,0C1,30.05.06,29.14,0,27.24Q0,21.39,0,15.53a2.53,2.53,0,0,1,2.51-2.79c1.24-.08,2.5-.05,3.74,0s2.47.1,3.83.16c.42-.64.89-1.45,1.45-2.2a9.39,9.39,0,0,0,2.07-7.2C13.46,2.26,13.36.84,14.8.22s2.7.21,3.79,1.18a6,6,0,0,1,2.22,5.16c-.09,1.15,0,2.31,0,3.72h5.66a3.36,3.36,0,0,1,3.6,2.42c.33,1.18-.46,2.29-.21,3.45a8.68,8.68,0,0,0,.41,1.11,3.2,3.2,0,0,1,0,2c-.2.62-.6,1.18-.77,1.81a12,12,0,0,1-.36,2c-.28.63-.91,1.06-1.22,1.68a7.55,7.55,0,0,0-.36,1.81,3.76,3.76,0,0,1-.67,1.34,3.44,3.44,0,0,1-2.49,1.29c-3.26.24-6.53.36-9.8.4A26.43,26.43,0,0,1,10.55,29ZM18.3,11.92c.25-1.56.48-3,.71-4.4A4.55,4.55,0,0,0,15.8,2.14a1.73,1.73,0,0,0-.2.41,2,2,0,0,0,0,.69c.58,3.42-.69,6.27-2.73,8.88-.29.37-.52.78-.77,1.17a6.83,6.83,0,0,0-1.23,4.18c.11,2.26,0,4.53,0,6.79,0,2.69.63,3.39,3.25,3.43,2.81,0,5.62,0,8.43-.05a6,6,0,0,0,1.82-.32c1.16-.39,1.43-.89,1.27-2.12a5.79,5.79,0,0,0-.26-1c.82-.58,1.79-.93,2.09-1.59s-.08-1.6-.14-2.23c.61-.82,1.56-1.53,1.57-2.26S28,16.69,27.4,15.89a6.05,6.05,0,0,0,.55-.65c1-1.5.65-2.46-1.06-3a9.7,9.7,0,0,0-2.53-.32C22.43,11.89,20.5,11.92,18.3,11.92ZM2.05,27.9a15.43,15.43,0,0,0,6.74-.14c.35-3.87.22-11.28-.27-13.09a42.82,42.82,0,0,0-6.47.17Z"/></g></g></g></svg>