<svg xmlns="http://www.w3.org/2000/svg" xmlns:xlink="http://www.w3.org/1999/xlink" viewBox="0 0 559.89 579.49"><defs><style>.cls-1{fill:url(#Degradado_sin_nombre_40);}.cls-2{fill:url(#Degradado_sin_nombre_43);}.cls-3{fill:url(#Degradado_sin_nombre_40-2);}.cls-4{fill:url(#Degradado_sin_nombre_43-2);}.cls-5{fill:url(#Degradado_sin_nombre_40-3);}.cls-6{fill:url(#Degradado_sin_nombre_43-3);}.cls-7{fill:url(#Degradado_sin_nombre_20);}.cls-8{fill:url(#Degradado_sin_nombre_9);}.cls-9{fill:url(#Degradado_sin_nombre_37);}.cls-10{fill:#ffcb4b;}.cls-11{fill:url(#Degradado_sin_nombre_43-4);}.cls-12,.cls-38{isolation:isolate;opacity:0.5;}.cls-12{fill:url(#Degradado_sin_nombre_7);}.cls-13{fill:url(#Degradado_sin_nombre_16);}.cls-14{fill:url(#Degradado_sin_nombre_17);}.cls-15{fill:url(#Degradado_sin_nombre_16-2);}.cls-16{fill:url(#Degradado_sin_nombre_17-2);}.cls-17{fill:url(#Degradado_sin_nombre_16-3);}.cls-18{fill:url(#Degradado_sin_nombre_17-3);}.cls-19{fill:url(#Degradado_sin_nombre_18);}.cls-20{fill:url(#Degradado_sin_nombre_19);}.cls-21{fill:url(#Degradado_sin_nombre_35);}.cls-22{fill:url(#Degradado_sin_nombre_6);}.cls-23{fill:url(#Degradado_sin_nombre_35-2);}.cls-24{fill:url(#Degradado_sin_nombre_35-3);}.cls-25{fill:url(#Degradado_sin_nombre_6-2);}.cls-26{fill:url(#Degradado_sin_nombre_35-4);}.cls-27{fill:url(#Degradado_sin_nombre_35-5);}.cls-28{fill:url(#Degradado_sin_nombre_6-3);}.cls-29{fill:url(#Degradado_sin_nombre_35-6);}.cls-30{fill:url(#Degradado_sin_nombre_35-7);}.cls-31{fill:url(#Degradado_sin_nombre_33);}.cls-32{fill:url(#Degradado_sin_nombre_34);}.cls-33{fill:url(#Degradado_sin_nombre_35-8);}.cls-34{fill:url(#Degradado_sin_nombre_33-2);}.cls-35{fill:url(#Degradado_sin_nombre_34-2);}.cls-36{fill:url(#Degradado_sin_nombre_35-9);}.cls-37{fill:url(#Degradado_sin_nombre_37-2);}.cls-38{fill:url(#Degradado_sin_nombre_37-3);}.cls-39{fill:url(#Degradado_sin_nombre_40-4);}.cls-40{fill:url(#Degradado_sin_nombre_40-5);}.cls-41{fill:url(#Degradado_sin_nombre_40-6);}.cls-42{fill:url(#Degradado_sin_nombre_43-5);}.cls-43{fill:url(#Degradado_sin_nombre_43-6);}.cls-44{fill:url(#Degradado_sin_nombre_43-7);}</style><radialGradient id="Degradado_sin_nombre_40" cx="2821.95" cy="296.55" r="9.72" gradientTransform="matrix(3.53, 12.33, 12.33, -3.53, -13157.3, -33623.83)" gradientUnits="userSpaceOnUse"><stop offset="0" stop-color="#ff9d00"/><stop offset="1" stop-color="#ffb92e"/></radialGradient><radialGradient id="Degradado_sin_nombre_43" cx="2821.59" cy="292.04" r="9.72" gradientTransform="matrix(3.46, 12.08, 12.08, -3.46, -12826.65, -32936.15)" gradientUnits="userSpaceOnUse"><stop offset="0" stop-color="#ffe030"/><stop offset="1" stop-color="#ffb92e"/></radialGradient><radialGradient id="Degradado_sin_nombre_40-2" cx="2112.12" cy="581.24" r="9.72" gradientTransform="matrix(3.58, -0.95, -0.95, -3.58, -6827.84, 4100.49)" xlink:href="#Degradado_sin_nombre_40"/><radialGradient id="Degradado_sin_nombre_43-2" cx="2711.75" cy="511.74" r="9.72" gradientTransform="matrix(20.9, -5.55, -5.55, -20.9, -53761.03, 25606.32)" xlink:href="#Degradado_sin_nombre_43"/><radialGradient id="Degradado_sin_nombre_40-3" cx="1696.85" cy="309.41" r="9.72" gradientTransform="matrix(2.45, 0, 0, -2.45, -4097.17, 859.91)" xlink:href="#Degradado_sin_nombre_40"/><radialGradient id="Degradado_sin_nombre_43-3" cx="1921.98" cy="346.37" r="9.72" gradientTransform="matrix(3.07, 0, 0, -3.07, -5868.39, 1164.19)" xlink:href="#Degradado_sin_nombre_43"/><linearGradient id="Degradado_sin_nombre_20" x1="280.82" y1="-142.72" x2="280.82" y2="6.57" gradientTransform="matrix(1, 0, 0, -1, 0, 135.56)" gradientUnits="userSpaceOnUse"><stop offset="0" stop-color="#ff9214"/><stop offset="1" stop-color="#ffbc47"/></linearGradient><radialGradient id="Degradado_sin_nombre_9" cx="2746.55" cy="446.89" r="9.72" gradientTransform="matrix(28.19, -0.57, -0.25, -12.56, -77041.03, 7441.8)" gradientUnits="userSpaceOnUse"><stop offset="0.3" stop-color="#ff8000"/><stop offset="1" stop-color="#c20000"/></radialGradient><linearGradient id="Degradado_sin_nombre_37" x1="282" y1="-135.25" x2="282" y2="-31.27" gradientTransform="matrix(1, 0, 0, -1, 0, 135.56)" gradientUnits="userSpaceOnUse"><stop offset="0" stop-color="#e7ebee" stop-opacity="0"/><stop offset="1" stop-color="#cfdcde"/></linearGradient><radialGradient id="Degradado_sin_nombre_43-4" cx="2744.34" cy="465.5" r="9.72" gradientTransform="matrix(27.88, 0, 0, -27.88, -76282.35, 13312.4)" xlink:href="#Degradado_sin_nombre_43"/><radialGradient id="Degradado_sin_nombre_7" cx="2718.62" cy="459.2" r="9.72" gradientTransform="matrix(21.93, 0, 0, -21.93, -59402.71, 10406.83)" gradientUnits="userSpaceOnUse"><stop offset="0" stop-color="#ffea5f"/><stop offset="1" stop-color="#ffbc47" stop-opacity="0"/></radialGradient><radialGradient id="Degradado_sin_nombre_16" cx="2809.98" cy="-559.77" r="9.72" gradientTransform="matrix(1.13, 3.91, 2.53, -0.73, -1583.82, -11051.56)" gradientUnits="userSpaceOnUse"><stop offset="0" stop-color="#7a4400"/><stop offset="1" stop-color="#643800"/></radialGradient><linearGradient id="Degradado_sin_nombre_17" x1="188.61" y1="-164.11" x2="188.61" y2="-202.1" gradientTransform="matrix(1, 0, 0, -1, 0, 135.56)" gradientUnits="userSpaceOnUse"><stop offset="0" stop-color="#3c2200"/><stop offset="1" stop-color="#512d00"/></linearGradient><radialGradient id="Degradado_sin_nombre_16-2" cx="2821.18" cy="-499.93" r="9.72" gradientTransform="matrix(1.13, 3.91, 2.53, -0.73, -1565.01, -11051.56)" xlink:href="#Degradado_sin_nombre_16"/><linearGradient id="Degradado_sin_nombre_17-2" x1="371.28" y1="-165.11" x2="371.28" y2="-203.1" xlink:href="#Degradado_sin_nombre_17"/><radialGradient id="Degradado_sin_nombre_16-3" cx="2437.92" cy="306.52" r="9.72" gradientTransform="matrix(6.49, 0, 0, -4.19, -15540.04, 1747.49)" xlink:href="#Degradado_sin_nombre_16"/><linearGradient id="Degradado_sin_nombre_17-3" x1="182.31" y1="-317.77" x2="377.47" y2="-317.77" xlink:href="#Degradado_sin_nombre_17"/><linearGradient id="Degradado_sin_nombre_18" x1="285.2" y1="-52.61" x2="285.2" y2="-168.79" gradientTransform="matrix(1, 0, 0, -1, 0, 135.56)" gradientUnits="userSpaceOnUse"><stop offset="0" stop-color="#cbd4db"/><stop offset="0.57" stop-color="#fff"/><stop offset="0.72" stop-color="#fcfdfd"/><stop offset="0.83" stop-color="#f3f6f7"/><stop offset="0.92" stop-color="#e3ebec"/><stop offset="1" stop-color="#cfdcde"/></linearGradient><linearGradient id="Degradado_sin_nombre_19" x1="297.53" y1="-127.96" x2="284.11" y2="16.1" gradientTransform="matrix(1, 0, 0, -1, 0, 135.56)" gradientUnits="userSpaceOnUse"><stop offset="0" stop-color="#cbd4db"/><stop offset="1" stop-color="#cbd4db"/></linearGradient><radialGradient id="Degradado_sin_nombre_35" cx="3023.26" cy="427.22" r="9.72" gradientTransform="matrix(-12.26, 5.83, 5.15, 10.83, 35169.72, -22189.14)" gradientUnits="userSpaceOnUse"><stop offset="0" stop-color="#fff"/><stop offset="0.35" stop-color="#fcfdfd"/><stop offset="0.6" stop-color="#f3f6f7"/><stop offset="0.81" stop-color="#e3ebec"/><stop offset="1" stop-color="#cfdcde"/></radialGradient><radialGradient id="Degradado_sin_nombre_6" cx="3140.8" cy="383.29" r="9.72" gradientTransform="matrix(-7.52, 3.57, 3.16, 6.64, 22672.74, -13738.93)" gradientUnits="userSpaceOnUse"><stop offset="0" stop-color="#cfdcde" stop-opacity="0"/><stop offset="0.89" stop-color="#cfdcde" stop-opacity="0.89"/><stop offset="1" stop-color="#cfdcde"/></radialGradient><radialGradient id="Degradado_sin_nombre_35-2" cx="3007.35" cy="520.71" r="9.72" gradientTransform="matrix(-14.26, 0, 0, 11.42, 43378.13, -5927.98)" xlink:href="#Degradado_sin_nombre_35"/><radialGradient id="Degradado_sin_nombre_35-3" cx="3047.27" cy="589.61" r="9.72" gradientTransform="matrix(-10.96, -2.64, -2.18, 9.05, 35065.66, 2738.46)" xlink:href="#Degradado_sin_nombre_35"/><radialGradient id="Degradado_sin_nombre_6-2" cx="3122.8" cy="546.51" r="9.72" gradientTransform="matrix(-8.74, 0, 0, 7, 27706.81, -3763.29)" xlink:href="#Degradado_sin_nombre_6"/><radialGradient id="Degradado_sin_nombre_35-4" cx="2649.95" cy="450.17" r="9.72" gradientTransform="matrix(14.26, 0, 0, -11.42, -37616.83, 5247.12)" xlink:href="#Degradado_sin_nombre_35"/><radialGradient id="Degradado_sin_nombre_35-5" cx="2534.89" cy="239.13" r="9.72" gradientTransform="matrix(6.22, 3.3, 2.96, -5.59, -16238.32, -6966.56)" xlink:href="#Degradado_sin_nombre_35"/><radialGradient id="Degradado_sin_nombre_6-3" cx="2531.04" cy="430.94" r="9.72" gradientTransform="matrix(8.74, 0, 0, -7, -21954.4, 3082.83)" xlink:href="#Degradado_sin_nombre_6"/><radialGradient id="Degradado_sin_nombre_35-6" cx="2609.9" cy="443.29" r="9.72" gradientTransform="matrix(11.87, 0, 0, -9.51, -30840.08, 4311.08)" xlink:href="#Degradado_sin_nombre_35"/><radialGradient id="Degradado_sin_nombre_35-7" cx="2491.07" cy="416.03" r="9.72" gradientTransform="matrix(7.68, 0, 0, -6.15, -18928.39, 2670.68)" xlink:href="#Degradado_sin_nombre_35"/><radialGradient id="Degradado_sin_nombre_33" cx="2666.55" cy="579.92" r="9.72" gradientTransform="matrix(11.12, -8.2, -7.86, -10.66, -24865.69, 28152.4)" gradientUnits="userSpaceOnUse"><stop offset="0" stop-color="#fff"/><stop offset="0.34" stop-color="#fcfdfd"/><stop offset="0.59" stop-color="#f3f6f7"/><stop offset="0.81" stop-color="#e3ebec"/><stop offset="1" stop-color="#cfdcde"/></radialGradient><radialGradient id="Degradado_sin_nombre_34" cx="2652.83" cy="579.86" r="9.72" gradientTransform="matrix(10.37, -7.64, -7.33, -9.94, -22985, 26233.71)" gradientUnits="userSpaceOnUse"><stop offset="0" stop-color="#cfdcde" stop-opacity="0"/><stop offset="0.86" stop-color="#cfdcde" stop-opacity="0.86"/><stop offset="1" stop-color="#cfdcde"/></radialGradient><radialGradient id="Degradado_sin_nombre_35-8" cx="3165.29" cy="562.56" r="9.72" gradientTransform="matrix(-7.68, 0, 0, 6.15, 24680.57, -3340.6)" xlink:href="#Degradado_sin_nombre_35"/><radialGradient id="Degradado_sin_nombre_33-2" cx="3009.09" cy="397.53" r="9.72" gradientTransform="matrix(-11.12, 8.2, 7.86, 10.66, 30610.1, -28826.57)" xlink:href="#Degradado_sin_nombre_33"/><radialGradient id="Degradado_sin_nombre_34-2" cx="3021.58" cy="393.07" r="9.72" gradientTransform="matrix(-10.37, 7.64, 7.33, 9.94, 28735.22, -26896.63)" xlink:href="#Degradado_sin_nombre_34"/><radialGradient id="Degradado_sin_nombre_35-9" cx="3048.05" cy="535.96" r="9.72" gradientTransform="matrix(-11.87, 0, 0, 9.51, 36589.31, -4983.29)" xlink:href="#Degradado_sin_nombre_35"/><linearGradient id="Degradado_sin_nombre_37-2" x1="280.56" y1="15.12" x2="280.56" y2="-65.1" xlink:href="#Degradado_sin_nombre_37"/><linearGradient id="Degradado_sin_nombre_37-3" x1="281.09" y1="-17.65" x2="281.09" y2="161.35" xlink:href="#Degradado_sin_nombre_37"/><radialGradient id="Degradado_sin_nombre_40-4" cx="2691.33" cy="460.97" r="9.72" gradientTransform="matrix(16.12, 0, 0, -16.12, -42866.51, 7542.57)" xlink:href="#Degradado_sin_nombre_40"/><radialGradient id="Degradado_sin_nombre_40-5" cx="2769.91" cy="413.1" r="9.72" gradientTransform="matrix(21.49, 17.02, 17.02, -21.49, -66490.3, -38151.18)" xlink:href="#Degradado_sin_nombre_40"/><radialGradient id="Degradado_sin_nombre_40-6" cx="2643.96" cy="451.35" r="9.72" gradientTransform="matrix(13.52, 0, 0, -13.52, -35513.63, 6278.48)" xlink:href="#Degradado_sin_nombre_40"/><radialGradient id="Degradado_sin_nombre_43-5" cx="2695.36" cy="461.74" r="9.72" gradientTransform="matrix(16.57, 0, 0, -16.57, -44137.26, 7761.28)" xlink:href="#Degradado_sin_nombre_43"/><radialGradient id="Degradado_sin_nombre_43-6" cx="2771.64" cy="414.56" r="9.72" gradientTransform="matrix(22.04, 17.45, 17.45, -22.04, -68257.58, -39113.42)" xlink:href="#Degradado_sin_nombre_43"/><radialGradient id="Degradado_sin_nombre_43-7" cx="2678.69" cy="458.24" r="9.72" gradientTransform="matrix(16.44, 0, 0, -16.44, -43793.44, 7703.26)" xlink:href="#Degradado_sin_nombre_43"/></defs><g id="Capa_2" data-name="Capa 2"><g id="Capa_1-2" data-name="Capa 1"><path class="cls-1" d="M428.67,160.44c-1.75,25.19-21.7,37.62-21.7,37.62l-5.07,1.4s12.6-25,14.34-39.9Z"/><path class="cls-2" d="M423.59,161.84c-1.75,25.19-21.69,37.62-21.69,37.62L394,187s20.65-12.42,22.4-27.47Z"/><path class="cls-3" d="M206.29,17.15l-11.9,14.7,4.2,20.64-10.33,2.8-2.79-11-31-8.75,7.17-18.37,29-5.6,18.2-10Z"/><path class="cls-4" d="M201,23.1l-11.9,14.52,4.2,20.82L183,61.24l-2.63-11L154.5,35.52l8.57-14.69,22.4-3.33,18.37-10Z"/><path class="cls-5" d="M48.29,101.66l5.25-3.5,12.25,4.72,17.5-6.47-10.5,34.46L44.62,140,23.8,154.32Z"/><path class="cls-6" d="M18.55,136.65c5.25-8.75,29.74-35,29.74-35l12.25,4.73L78,99.9l-10.5,34.47-28,9.1-21,14.35Z"/><path class="cls-7" d="M525.07,213.46l-21.34,8-10.85-16.8-43.74-13.3-66.49,12.77-21.52-12.42L340.66,211l-50.74-6.65-48.12,4.37-3.85,9.8-16.09,7.87v10.5L217,226.4l12.6-16.62-33.07-19.94-43,15L104.1,194.39l3.15,30.09L85.38,202.61C8.75,207,8.75,231.48,8.75,231.48l22.39,98.33,306.2,37.09L549,303.39,552.89,235C552.37,226.05,525.07,213.46,525.07,213.46Z"/><path class="cls-8" d="M524.9,215.74l-22,8.57L491,205.76l-42.17-12.24-66.48,14.17-23.1-14.35-21,19.42-48.46-6.82-49.17,4.55-3.15,7.87-16.09,7.87v17.5l-7.18-14.35,13-17-30.62-21.17-43.74,16.62-49-11.37L107.08,229,83.29,205.24C6.65,209.61,8.05,235,8.05,235l22.4,98.33,306.19,37.1,211.71-63.52,3.85-68.41C552.37,229.56,524.9,215.74,524.9,215.74Z"/><path class="cls-9" d="M403.83,253.53s-17.15-14.35-31.5-3.5c0,0-160.44-15.75-161.84-15.75a35.52,35.52,0,0,0-28.17,13.12s-6.83-13.82-20.47-17.32c-13.83-3.67-28.35,9.1-28.35,9.1a37,37,0,0,0-23.79-16.62c-17.5-3.5-28.35,10.5-28.35,10.5s-25.72-20.65-43.21,2.1c-15,19.59,14.34,28.17,14.34,28.17l43.22,22.74,92.73,13.12,131.75,42.52,86.61,7.88,86.26-25.9L530.15,266s-4.72-23.62-19.6-27.47a27.7,27.7,0,0,0-24.32,5.43s-5.07-8-18.54-8-25.37,8.75-25.37,8.75S416.42,232.71,403.83,253.53Z"/><path class="cls-10" d="M216.61,226.41l-2.28,3,7.18,14.34v-7Z"/><path class="cls-10" d="M289.75,205.94l48.46,6.82,2.1-1.75-50.56-6.82-48.3,4.37-.7,1.93Z"/><path class="cls-10" d="M152.92,207.86,196.66,193l30.62,19.42,2.1-2.8-33.24-19.94-42.87,15.22-49.51-10.5.17,2.1Z"/><path class="cls-10" d="M525.08,213.46l-21.35,8-10.85-16.8-43.74-13.3-66.49,12.78-21.52-12.43-1.57,1.58,22.74,14,66.84-13.82,42.17,12.25,11.9,18.55,22-8.58s24.15,13.83,24.15,18.72c-4.38,18-12.25,19.43-12.25,19.43l-36.39-8.4-37.62,15.74,7.17,20.65L440,321.94l19.42-37.27v-3.5L442,258.25,398.4,273.82,323.16,252.3l-16.62-10.67-64,34.12-29.75-20.3-59.31,5.25-61.59-10L64.74,261.92l-7-15.57S11,242.15,11,230.26c0-6.13,21.53-23.63,72.27-25L107.08,229l-3.32-32.54,2.8,28L84.69,202.61C8.05,207,8.05,231.48,8.05,231.48l22.4,98.33L336.64,366.9l211.71-63.51L552.2,235C552.37,226.06,525.08,213.46,525.08,213.46Z"/><path class="cls-11" d="M552.37,235c-4,20.47-15.22,22.92-15.22,22.92l-36.75-8.75-33.24,14,5.25,18.37-32.54,44.27L459.29,285l-17.5-22.92-43.57,14.17-78-21-14.87-10.5-64.74,35.69-28.17-22.74L154,263.15,91.86,254.4,64.74,265.6l-7-15.57s-49.52-6.3-49.52-18.2A278.41,278.41,0,0,0,0,299.54c0,154.67,125.28,280,280,280S559.89,454.21,559.89,299.54A279.83,279.83,0,0,0,552.37,235Z"/><path class="cls-12" d="M552.37,235c-4,20.47-15.22,22.92-15.22,22.92l-36.75-8.75-33.24,14,5.25,18.37-32.54,44.27L459.29,285l-17.5-22.92-43.57,14.17-78-21-14.87-10.5-64.74,35.69-28.17-22.74L154,263.15,91.86,254.4,64.74,265.6l-7-15.57S8.22,243.9,8.22,231.83A278.41,278.41,0,0,0,0,299.54c0,154.67,125.28,280,280,280S559.89,454.21,559.89,299.54A279.83,279.83,0,0,0,552.37,235Z"/><path class="cls-13" d="M188.61,381.43c14.88,0,26.94-18.25,26.94-40.77s-12.06-40.77-26.94-40.77-27,18.26-27,40.77S173.73,381.43,188.61,381.43Z"/><path class="cls-14" d="M188.61,313.71c11.55,0,21.7,10.15,26.94,25-.35-22-12.24-39.72-26.94-39.72s-26.6,17.68-27,39.72C166.91,323.86,176.89,313.71,188.61,313.71Z"/><path class="cls-15" d="M371.28,381.43c14.88,0,26.94-18.25,26.94-40.77s-12.06-40.77-26.94-40.77-26.95,18.26-26.95,40.77S356.4,381.43,371.28,381.43Z"/><path class="cls-16" d="M371.28,314.76c-11.55,0-21.7,10.15-26.95,25,.35-22,12.25-39.72,26.95-39.72s26.59,17.68,26.94,39.72C393,324.73,383,314.76,371.28,314.76Z"/><path class="cls-17" d="M219.58,507.92c27.3-6.3,41.29-10.67,60.37-10.67s33.06,4.2,60.36,10.67c25.37,5.95,39.72-6.47,36.74-24.32-10-37.79-52.49-66.83-97.1-66.83-43.4,0-84.69,26.77-96.24,62.63C177.76,499.52,192.29,514.22,219.58,507.92Z"/><path class="cls-18" d="M183.71,485c11.55-29.22,52.84-50.74,96.24-50.74,44.61,0,87.13,23.62,97.1,54.24a5.57,5.57,0,0,0,.35,1.4,26.1,26.1,0,0,0-.35-6.3c-10-37.79-52.49-66.83-97.1-66.83-43.4,0-84.69,26.77-96.24,62.63a33.92,33.92,0,0,0-1.4,8.93C182.84,487.1,183.36,486.05,183.71,485Z"/><path class="cls-19" d="M183.37,258.07l29.39-2.62,29.57,20.47,64-34.12L323,252.47l64,18.2c-14.17-27.12-24.15-63-9.45-99.73,27.64-68.59-181.44-1.05-181.44-1.05C215,203.31,196.84,238.83,183.37,258.07Z"/><path class="cls-20" d="M324.74,233.58c.87,13.82,8.4,1.57,4.9-38.67s17.14-18.37,16.09,14.87,25.9,63.34,19.25,38.14-5.07-76.11,5.95-48.64a101.05,101.05,0,0,1,6.82-28.34c27.65-68.59-181.44-1.05-181.44-1.05a60.44,60.44,0,0,1,7.53,23.27c2.1,2.45,3.67,6.65,4,12.07.88,19.6,13.12.7,13.12-13.65s11.38,10.15,13.13,45.5c.87,15.92,8.74,2.1,7.87-42-.35-18,14.52,1.23,17.5,20.3s5.59,12.42,10.84-16.8,17.85,5.78,19.25,27.65,8.4-10.5,12.07-36.4S323.86,219.93,324.74,233.58Z"/><path class="cls-21" d="M301.82,95.88c33.05,0,59.84-21.46,59.84-47.94S334.87,0,301.82,0,242,21.46,242,47.94,268.77,95.88,301.82,95.88Z"/><path class="cls-22" d="M262.45,11.9a47.23,47.23,0,0,1,8.75-5.08c28.34-13.47,65.09-5.95,82.06,16.8a40.47,40.47,0,0,1,8.22,28.69l-27.82-2.1C329.64,23.79,303.57-.35,262.45,11.9Z"/><path class="cls-23" d="M424.12,135.77c33.05,0,59.84-21.46,59.84-47.94s-26.79-47.94-59.84-47.94-59.83,21.47-59.83,47.94S391.08,135.77,424.12,135.77Z"/><path class="cls-24" d="M345,126.5c36.63,0,66.32-23.74,66.32-53s-29.69-53-66.32-53-66.31,23.74-66.31,53S308.41,126.5,345,126.5Z"/><path class="cls-25" d="M413.28,40.59a74.23,74.23,0,0,1,10.85-.87c33.06,0,59.83,21.52,59.83,47.94,0,10.5-4.2,20.12-11.2,28l-22.57-13.12C463.32,78.38,456.32,47.07,413.28,40.59Z"/><path class="cls-26" d="M155.72,135.77c33.05,0,59.84-21.46,59.84-47.94s-26.79-47.94-59.84-47.94S95.88,61.36,95.88,87.83,122.67,135.77,155.72,135.77Z"/><path class="cls-27" d="M234.8,126.5c36.63,0,66.32-23.74,66.32-53s-29.69-53-66.32-53-66.31,23.74-66.31,53S198.18,126.5,234.8,126.5Z"/><path class="cls-28" d="M166.4,40.59a74.34,74.34,0,0,0-10.85-.87c-33.07,0-59.84,21.52-59.84,47.94,0,10.5,4.2,20.12,11.2,28l22.57-13.12C116.36,78.38,123.36,47.07,166.4,40.59Z"/><path class="cls-29" d="M99.38,184.94c33.05,0,59.84-21.46,59.84-47.94S132.43,89.06,99.38,89.06,39.55,110.52,39.55,137,66.34,184.94,99.38,184.94Z"/><path class="cls-30" d="M197.36,178.29c30.64,0,55.47-19.89,55.47-44.44S228,89.41,197.36,89.41s-55.46,19.9-55.46,44.44S166.73,178.29,197.36,178.29Z"/><path class="cls-31" d="M294.12,192.29c41.07,0,74.36-26.64,74.36-59.49s-33.29-59.49-74.36-59.49-74.36,26.63-74.36,59.49S253.05,192.29,294.12,192.29Z"/><path class="cls-32" d="M294.12,192.29c41.07,0,74.36-26.64,74.36-59.49s-33.29-59.49-74.36-59.49-74.36,26.63-74.36,59.49S253.05,192.29,294.12,192.29Z"/><path class="cls-33" d="M373.21,185.64c30.63,0,55.46-19.9,55.46-44.44s-24.83-44.44-55.46-44.44-55.47,19.9-55.47,44.44S342.57,185.64,373.21,185.64Z"/><path class="cls-34" d="M294.12,192.29c41.07,0,74.36-26.64,74.36-59.49s-33.29-59.49-74.36-59.49-74.36,26.63-74.36,59.49S253.05,192.29,294.12,192.29Z"/><path class="cls-35" d="M294.12,192.29c41.07,0,74.36-26.64,74.36-59.49s-33.29-59.49-74.36-59.49-74.36,26.63-74.36,59.49S253.05,192.29,294.12,192.29Z"/><path class="cls-36" d="M462.09,184.94c33.05,0,59.84-21.46,59.84-47.94s-26.79-47.94-59.84-47.94S402.25,110.52,402.25,137,429,184.94,462.09,184.94Z"/><path class="cls-37" d="M342.24,177.94a65.3,65.3,0,0,0,31,7.52c17.84,0,33.59-6.64,43.74-17.14,11,10.15,27.12,16.44,45.14,16.44,30.45,0,55.64-18.19,59.31-41.81-30.79,53.19-117.92,3.67-117.92,3.67-11.73,16.27-38.32,3.68-38.32,3.68s-20.65,25.37-71,25.37S224.84,154,224.84,154c-46,12.07-81.71-11.55-81.71-11.55-32.9,20.82-79.79,21-103.41-7.35v1.75c0,26.42,26.77,47.94,59.84,47.94,22.92,0,42.69-10.32,52.84-25.37,10,11.38,26.6,18.73,45.14,18.73a65.2,65.2,0,0,0,36.39-10.85,59.11,59.11,0,0,0,5.78,5.6C266.65,196.66,312.14,198.76,342.24,177.94Z"/><path class="cls-38" d="M521.93,137c0-20.3-15.93-37.79-38.15-44.62,0-.52.18-1,.18-1.57v-3c0-26.42-26.77-47.95-59.84-47.95h-3a6.44,6.44,0,0,0-1.93.18h-.7c-.87,0-1.75.17-2.45.17h-.17A78.36,78.36,0,0,0,400,43.92c-8.22-9.8-20.64-17.5-35.86-21.17a84.31,84.31,0,0,0-13.3-2.1C333.14.18,298.32-6.12,271.2,6.83a9.28,9.28,0,0,0-2.27,1.22c-.53.35-1.05.53-1.58.87-.17.18-.35.18-.52.35a19.08,19.08,0,0,0-1.93,1.23h-.17A53.32,53.32,0,0,0,251.6,22.22C225.18,16.62,196,24.85,180,44.09a75.56,75.56,0,0,0-15.92-3.67H164a12.08,12.08,0,0,0-2.45-.18h-.7a6.8,6.8,0,0,1-1.93-.17h-3c-33.07,0-59.84,21.52-59.84,47.94v1.22c-28.7,1.23-52,18.55-55.82,41,.35-1.05,18.9-42.17,74-39.72a93.44,93.44,0,0,0-14-1.4s5.6-57.56,77.16-42.17c0,0,32.72-34.29,89.76-19.77a40.55,40.55,0,0,0-10.85-3.85S269.27,3.15,299.72,3.15s45.14,17.32,45.14,17.32a56.27,56.27,0,0,0-12.25.88s52.49-3.5,75.76,36.57a46.79,46.79,0,0,0-5.07-9.63s34.47-13.12,59.14,6.65,13.3,35.34,13.3,35.34a58.89,58.89,0,0,0-13.83-1.22s57.74,13.82,58.79,57.21A42.13,42.13,0,0,0,521.93,137Z"/><path class="cls-39" d="M478.36,231.3c-4.73-1-11.38-7.34-9.28-12.24,4.2-8.93,11.73-29.05,9.1-36.57l45-18.2,4.2,1.05c-3.15,7.88-16.27,28.17-21,33.42,0,0,1.75,6.82,3.33,16.45,1.75,9.8-18.55,15.57-18.55,15.57Z"/><path class="cls-40" d="M82.75,138.92c12.78-6.82,45.67-5.42,57.57.53s26.94,43.21,26.94,43.21l-4.2,3L98.33,165.87l-19.77-23.8Z"/><path class="cls-41" d="M217.49,231.48l40.59,8.58,22.22-38.32-1.05-3-29.39,15.93-11.2,12.77H215.39Z"/><path class="cls-42" d="M478.36,231.31c-4.73-1.05-7.18-7-4.9-11.9,4.2-8.92,11.37-26.42,8.75-34.12l45.14-20.12s-9.63,30.27-15.75,36.92c0,0,1.75,6.82,3.32,16.45,1.75,9.79-18.54,15.57-18.54,15.57l-17.67-3Z"/><path class="cls-43" d="M78.56,142.07c12.77-6.82,45.66-5.42,57.56.53s26.95,43.21,26.95,43.21l-31,15.4L94,168.84l-18.89,14Z"/><path class="cls-44" d="M238.3,257.2l21.88-10.67,15.57-13.65,4.55-31.14-29.22,16.62-12.43,12.42-21.17.7Z"/></g></g></svg>