<svg xmlns="http://www.w3.org/2000/svg" viewBox="0 0 59.47 77.4"><defs><style>.cls-1{fill:#fff;}</style></defs><g id="Capa_2" data-name="Capa 2"><g id="Capa_1-2" data-name="Capa 1"><g id="BWms92"><path class="cls-1" d="M0,38.71q0-14.51,0-29A9.31,9.31,0,0,1,3.15,2.3,8.68,8.68,0,0,1,8.71.05c1.45,0,2.9,0,4.35,0Q25.32,0,37.58,0a2.35,2.35,0,0,1,1.75.84l10,10c3.05,3,6.08,6.09,9.14,9.11a2.94,2.94,0,0,1,1,2.28c0,15.19,0,30.37,0,45.56a9.32,9.32,0,0,1-6.82,9.25,11.28,11.28,0,0,1-2.71.32q-20.2,0-40.4,0a9,9,0,0,1-9-6.25A12.16,12.16,0,0,1,0,67.58C0,58,0,48.34,0,38.71Zm35.86-35c-.34,0-.6,0-.87,0H9.61a5.57,5.57,0,0,0-5.93,5.9q0,29.13,0,58.28a5.51,5.51,0,0,0,5.88,5.84H50a7.17,7.17,0,0,0,1.6-.15c2.66-.65,4.22-2.8,4.22-5.81V24.51c0-.28,0-.56,0-.91h-.95c-3.12,0-6.23,0-9.35,0a11.2,11.2,0,0,1-2.32-.23,9.13,9.13,0,0,1-7.24-9c0-3.25,0-6.5,0-9.76ZM52.76,19.91,39.58,6.61a.52.52,0,0,0,0,.15c0,2.52,0,5.05,0,7.57a5.5,5.5,0,0,0,5.58,5.57c2.06,0,4.13,0,6.2,0Z"/><path class="cls-1" d="M29.78,59.75H47.67a1.84,1.84,0,0,1,.13,3.68c-.24,0-.49,0-.73,0H12.42a4.11,4.11,0,0,1-1.11-.11A1.77,1.77,0,0,1,10,61.45a1.84,1.84,0,0,1,1.59-1.68,6.47,6.47,0,0,1,.88,0Z"/><path class="cls-1" d="M29.66,49.46H12.5a8.81,8.81,0,0,1-.89,0,1.81,1.81,0,0,1,0-3.6,6.47,6.47,0,0,1,.88,0H47a6.56,6.56,0,0,1,.89,0,1.81,1.81,0,0,1,0,3.6,8.75,8.75,0,0,1-.89,0Z"/><path class="cls-1" d="M21.85,31.86h9.26c.24,0,.48,0,.72,0a1.84,1.84,0,0,1-.06,3.68c-.19,0-.38,0-.57,0-6.28,0-12.56,0-18.84,0-1.71,0-2.4-1-2.38-1.89s.87-1.87,2.37-1.84C15.51,31.9,18.68,31.86,21.85,31.86Z"/></g></g></g></svg>